HIERARCHY
ROOT Root
{
  OFFSET 0.0 0.0 0.0
  CHANNELS 6 Xposition Yposition Zposition Zrotation Yrotation Xrotation
  JOINT Hips
  {
    OFFSET 0.0 100.0 0.0
    CHANNELS 6 Xposition Yposition Zposition Zrotation Yrotation Xrotation
    JOINT Spine1
    {
      OFFSET -0.013727 5.003763 -0.053727
      CHANNELS 3 Zrotation Yrotation Xrotation
      JOINT Spine2
      {
        OFFSET -0.0 7.125301 -0.029825
        CHANNELS 3 Zrotation Yrotation Xrotation
        JOINT Chest
        {
          OFFSET -1e-06 7.550063 -0.815971
          CHANNELS 3 Zrotation Yrotation Xrotation
          JOINT Neck1
          {
            OFFSET -0.181677 26.311295 -0.553348
            CHANNELS 3 Zrotation Yrotation Xrotation
            JOINT Neck2
            {
              OFFSET -3e-06 7.709397 2.302585
              CHANNELS 3 Zrotation Yrotation Xrotation
              JOINT Head
              {
                OFFSET -5e-06 6.128916 1.953709
                CHANNELS 3 Zrotation Yrotation Xrotation
                JOINT HeadEnd
                {
                  OFFSET 0.003598 16.065403 -1.835379
                  CHANNELS 3 Zrotation Yrotation Xrotation
                }
                JOINT Jaw
                {
                  OFFSET 0.002637 0.475592 3.094941
                  CHANNELS 3 Zrotation Yrotation Xrotation
                }
                JOINT LeftEye
                {
                  OFFSET 3.206381 5.380205 7.586883
                  CHANNELS 3 Zrotation Yrotation Xrotation
                }
                JOINT RightEye
                {
                  OFFSET -3.22244 5.361869 7.558234
                  CHANNELS 3 Zrotation Yrotation Xrotation
                }
              }
            }
          }
          JOINT LeftShoulder
          {
            OFFSET 1.621652 23.237164 5.113413
            CHANNELS 3 Zrotation Yrotation Xrotation
            JOINT LeftArm
            {
              OFFSET 14.919846 2e-06 -5.502326
              CHANNELS 3 Zrotation Yrotation Xrotation
              JOINT LeftForeArm
              {
                OFFSET 28.739307 0.0 -0.002588
                CHANNELS 3 Zrotation Yrotation Xrotation
                JOINT LeftHand
                {
                  OFFSET 27.093981 -1e-06 0.002609
                  CHANNELS 3 Zrotation Yrotation Xrotation
                  JOINT LeftHandThumb1
                  {
                    OFFSET 2.276482 -1.392045 3.191413
                    CHANNELS 3 Zrotation Yrotation Xrotation
                    JOINT LeftHandThumb2
                    {
                      OFFSET 4.012836 -1.828127 1.641654
                      CHANNELS 3 Zrotation Yrotation Xrotation
                      JOINT LeftHandThumb3
                      {
                        OFFSET 2.798515 0.0 -3e-06
                        CHANNELS 3 Zrotation Yrotation Xrotation
                        JOINT LeftHandThumbEnd
                        {
                          OFFSET 3.180793 -4e-06 4e-06
                          CHANNELS 3 Zrotation Yrotation Xrotation
                        }
                      }
                    }
                  }
                  JOINT LeftHandIndex1
                  {
                    OFFSET 3.247555 -0.531998 2.296169
                    CHANNELS 3 Zrotation Yrotation Xrotation
                    JOINT LeftHandIndex2
                    {
                      OFFSET 6.364578 0.01206 0.1786
                      CHANNELS 3 Zrotation Yrotation Xrotation
                      JOINT LeftHandIndex3
                      {
                        OFFSET 3.662364 0.0 0.0
                        CHANNELS 3 Zrotation Yrotation Xrotation
                        JOINT LeftHandIndex4
                        {
                          OFFSET 2.329242 4e-06 4e-06
                          CHANNELS 3 Zrotation Yrotation Xrotation
                          JOINT LeftHandIndexEnd
                          {
                            OFFSET 2.759615 -0.180537 -0.113024
                            CHANNELS 3 Zrotation Yrotation Xrotation
                          }
                        }
                      }
                    }
                  }
                  JOINT LeftHandMiddle1
                  {
                    OFFSET 3.163495 0.240981 1.000332
                    CHANNELS 3 Zrotation Yrotation Xrotation
                    JOINT LeftHandMiddle2
                    {
                      OFFSET 6.19078 -0.259278 -1.002548
                      CHANNELS 3 Zrotation Yrotation Xrotation
                      JOINT LeftHandMiddle3
                      {
                        OFFSET 4.35652 -4e-06 -1e-06
                        CHANNELS 3 Zrotation Yrotation Xrotation
                        JOINT LeftHandMiddle4
                        {
                          OFFSET 2.996877 -8e-06 0.0
                          CHANNELS 3 Zrotation Yrotation Xrotation
                          JOINT LeftHandMiddleEnd
                          {
                            OFFSET 2.304287 -0.294569 -0.031741
                            CHANNELS 3 Zrotation Yrotation Xrotation
                          }
                        }
                      }
                    }
                  }
                  JOINT LeftHandRing1
                  {
                    OFFSET 2.882643 -0.053652 -0.322543
                    CHANNELS 3 Zrotation Yrotation Xrotation
                    JOINT LeftHandRing2
                    {
                      OFFSET 5.854541 -0.486202 -1.373841
                      CHANNELS 3 Zrotation Yrotation Xrotation
                      JOINT LeftHandRing3
                      {
                        OFFSET 4.350578 0.0 3e-06
                        CHANNELS 3 Zrotation Yrotation Xrotation
                        JOINT LeftHandRing4
                        {
                          OFFSET 2.651321 7e-06 2e-06
                          CHANNELS 3 Zrotation Yrotation Xrotation
                          JOINT LeftHandRingEnd
                          {
                            OFFSET 1.936105 0.077687 -7.1e-05
                            CHANNELS 3 Zrotation Yrotation Xrotation
                          }
                        }
                      }
                    }
                  }
                  JOINT LeftHandPinky1
                  {
                    OFFSET 2.8655 -0.310005 -1.600378
                    CHANNELS 3 Zrotation Yrotation Xrotation
                    JOINT LeftHandPinky2
                    {
                      OFFSET 5.087849 -1.331141 -1.77123
                      CHANNELS 3 Zrotation Yrotation Xrotation
                      JOINT LeftHandPinky3
                      {
                        OFFSET 3.070974 4e-06 0.0
                        CHANNELS 3 Zrotation Yrotation Xrotation
                        JOINT LeftHandPinky4
                        {
                          OFFSET 1.549672 0.0 1e-06
                          CHANNELS 3 Zrotation Yrotation Xrotation
                          JOINT LeftHandPinkyEnd
                          {
                            OFFSET 1.944893 -0.157802 0.057219
                            CHANNELS 3 Zrotation Yrotation Xrotation
                          }
                        }
                      }
                    }
                  }
                }
              }
            }
          }
          JOINT RightShoulder
          {
            OFFSET -1.380118 23.180309 5.214158
            CHANNELS 3 Zrotation Yrotation Xrotation
            JOINT RightArm
            {
              OFFSET -15.037196 1.2e-05 -5.545604
              CHANNELS 3 Zrotation Yrotation Xrotation
              JOINT RightForeArm
              {
                OFFSET -28.736639 2e-06 -0.002597
                CHANNELS 3 Zrotation Yrotation Xrotation
                JOINT RightHand
                {
                  OFFSET -27.133619 -0.0 0.002613
                  CHANNELS 3 Zrotation Yrotation Xrotation
                  JOINT RightHandThumb1
                  {
                    OFFSET -2.274032 -1.383988 3.163127
                    CHANNELS 3 Zrotation Yrotation Xrotation
                    JOINT RightHandThumb2
                    {
                      OFFSET -4.011429 -1.827466 1.640914
                      CHANNELS 3 Zrotation Yrotation Xrotation
                      JOINT RightHandThumb3
                      {
                        OFFSET -2.794935 -4e-06 -3e-06
                        CHANNELS 3 Zrotation Yrotation Xrotation
                        JOINT RightHandThumbEnd
                        {
                          OFFSET -3.183852 4e-06 1e-06
                          CHANNELS 3 Zrotation Yrotation Xrotation
                        }
                      }
                    }
                  }
                  JOINT RightHandIndex1
                  {
                    OFFSET -3.253266 -0.520057 2.282866
                    CHANNELS 3 Zrotation Yrotation Xrotation
                    JOINT RightHandIndex2
                    {
                      OFFSET -6.341917 0.012471 0.178266
                      CHANNELS 3 Zrotation Yrotation Xrotation
                      JOINT RightHandIndex3
                      {
                        OFFSET -3.654871 -8e-06 -0.0
                        CHANNELS 3 Zrotation Yrotation Xrotation
                        JOINT RightHandIndex4
                        {
                          OFFSET -2.327586 0.0 1e-06
                          CHANNELS 3 Zrotation Yrotation Xrotation
                          JOINT RightHandIndexEnd
                          {
                            OFFSET -2.76179 -0.180656 -0.113078
                            CHANNELS 3 Zrotation Yrotation Xrotation
                          }
                        }
                      }
                    }
                  }
                  JOINT RightHandMiddle1
                  {
                    OFFSET -3.168106 0.246593 1.00103
                    CHANNELS 3 Zrotation Yrotation Xrotation
                    JOINT RightHandMiddle2
                    {
                      OFFSET -6.180828 -0.258836 -1.000895
                      CHANNELS 3 Zrotation Yrotation Xrotation
                      JOINT RightHandMiddle3
                      {
                        OFFSET -4.348901 0.0 -0.0
                        CHANNELS 3 Zrotation Yrotation Xrotation
                        JOINT RightHandMiddle4
                        {
                          OFFSET -3.00024 -4e-06 -2e-06
                          CHANNELS 3 Zrotation Yrotation Xrotation
                          JOINT RightHandMiddleEnd
                          {
                            OFFSET -2.30252 -0.29437 -0.031706
                            CHANNELS 3 Zrotation Yrotation Xrotation
                          }
                        }
                      }
                    }
                  }
                  JOINT RightHandRing1
                  {
                    OFFSET -2.88569 -0.067952 -0.308858
                    CHANNELS 3 Zrotation Yrotation Xrotation
                    JOINT RightHandRing2
                    {
                      OFFSET -5.854198 -0.48613 -1.373731
                      CHANNELS 3 Zrotation Yrotation Xrotation
                      JOINT RightHandRing3
                      {
                        OFFSET -4.33881 -4e-06 -0.0
                        CHANNELS 3 Zrotation Yrotation Xrotation
                        JOINT RightHandRing4
                        {
                          OFFSET -2.654903 -4e-06 4e-06
                          CHANNELS 3 Zrotation Yrotation Xrotation
                          JOINT RightHandRingEnd
                          {
                            OFFSET -1.933568 0.077527 -5.2e-05
                            CHANNELS 3 Zrotation Yrotation Xrotation
                          }
                        }
                      }
                    }
                  }
                  JOINT RightHandPinky1
                  {
                    OFFSET -2.866425 -0.342796 -1.584145
                    CHANNELS 3 Zrotation Yrotation Xrotation
                    JOINT RightHandPinky2
                    {
                      OFFSET -5.091371 -1.332055 -1.772385
                      CHANNELS 3 Zrotation Yrotation Xrotation
                      JOINT RightHandPinky3
                      {
                        OFFSET -3.062664 -4e-06 1e-06
                        CHANNELS 3 Zrotation Yrotation Xrotation
                        JOINT RightHandPinky4
                        {
                          OFFSET -1.546529 4e-06 -2e-06
                          CHANNELS 3 Zrotation Yrotation Xrotation
                          JOINT RightHandPinkyEnd
                          {
                            OFFSET -1.945119 -0.157718 0.057211
                            CHANNELS 3 Zrotation Yrotation Xrotation
                          }
                        }
                      }
                    }
                  }
                }
              }
            }
          }
        }
      }
    }
    JOINT LeftLeg
    {
      OFFSET 10.043214 -8.434526 2.595655
      CHANNELS 3 Zrotation Yrotation Xrotation
      JOINT LeftShin
      {
        OFFSET -1e-06 -43.221752 -0.802913
        CHANNELS 3 Zrotation Yrotation Xrotation
        JOINT LeftFoot
        {
          OFFSET 1e-06 -42.155094 -3.481523
          CHANNELS 3 Zrotation Yrotation Xrotation
          JOINT LeftToeBase
          {
            OFFSET 0.0 -5.059472 13.231529
            CHANNELS 3 Zrotation Yrotation Xrotation
            JOINT LeftToeEnd
            {
              OFFSET -0.009607 -1.647619 6.513017
              CHANNELS 3 Zrotation Yrotation Xrotation
            }
          }
        }
      }
    }
    JOINT RightLeg
    {
      OFFSET -10.047278 -8.29526 2.620317
      CHANNELS 3 Zrotation Yrotation Xrotation
      JOINT RightShin
      {
        OFFSET 1e-06 -43.362206 -0.805556
        CHANNELS 3 Zrotation Yrotation Xrotation
        JOINT RightFoot
        {
          OFFSET 2e-06 -42.117393 -3.478398
          CHANNELS 3 Zrotation Yrotation Xrotation
          JOINT RightToeBase
          {
            OFFSET -0.0 -5.079609 13.284196
            CHANNELS 3 Zrotation Yrotation Xrotation
            JOINT RightToeEnd
            {
              OFFSET 0.009532 -1.634378 6.460591
              CHANNELS 3 Zrotation Yrotation Xrotation
            }
          }
        }
      }
    }
  }
}
MOTION
Frames: 5
Frame Time: 0.03333333333333333
0.0 0.0 0.0 0.0 -0.0 0.0 0.069848 99.437439 0.435674 0.767656 0.330661 -8.435966 0.515812 -0.028319 1.86575 -0.477384 0.308054 -4.436556 -1.591163 -1.575917 12.566559 0.751235 2.327802 6.578895 -0.900593 -0.4212 -3.603555 -0.298003 -1.203486 -6.169905 7.7e-05 -2.2e-05 6e-06 0.020675 -0.020104 -0.000121 0.76595 -3.737358 -10.566108 -0.727519 3.70836 -10.546005 -8.935517 -4.337343 15.941684 -57.345539 -13.308289 36.503654 -0.20561 -28.478466 0.114717 7.247687 8.606453 -16.062582 -5.882108 9.861288 0.702591 -10.936875 -0.360575 7.156204 1e-06 8.774826 -2e-06 -15.998067 17.66258 6.142285 -1.844032 2.498505 -2.507277 -10.163604 4.678946 4.621108 -20.97603 -5e-06 2e-06 -21.226292 2.451698 -3.593999 1e-06 -6e-06 -1e-06 -1.362681 2.240798 -0.746324 -21.334921 0.584909 3.008322 -13.821217 -3e-06 2e-06 -23.887175 -0.249079 -0.839481 -60.454758 2.362947 -1.163668 -0.294025 1.679688 0.833256 -14.218215 0.093214 1.300582 -34.212063 -0.287566 0.967171 -20.033218 0.964536 1.212844 1e-06 2e-06 -1e-06 -3.44039 0.788234 0.501654 -15.928192 -3.167312 2.999708 -6.338829 -1e-06 1e-06 -18.123455 3.648182 -4.905672 -4e-06 -0.0 -2e-06 14.808272 8.920233 17.316137 58.901932 12.160337 10.472818 0.721832 26.910292 0.252113 2.637029 -4.591484 -1.043379 2.243543 -5.255037 -3.180158 14.282896 -0.826595 6.952502 -3e-06 -12.690605 3e-06 15.945457 -17.421925 2.680274 1.665666 -1.955921 -2.878298 4.727799 -4.170588 4.993926 11.020528 3e-06 -1e-06 12.109055 -3.735716 -2.866783 -1e-06 0.0 0.0 1.291985 -1.928549 -1.49809 14.800132 0.567467 3.865605 14.242576 -1.341737 -6.660658 19.631973 0.143927 -0.648245 49.565044 -0.493353 -6.349527 0.35303 -1.511151 -0.031939 20.222797 3.684309 2.31663 18.787279 6e-06 -2e-06 10.75163 -0.479869 1.397905 -2e-06 -1e-06 -1e-06 3.273807 0.305947 -0.58011 21.486818 11.830376 2.266131 8.162928 1e-06 -1e-06 18.399084 -3.798983 -4.940578 4e-06 -0.0 -2e-06 4.395895 8.691181 8.709179 -0.052374 -0.016188 6.391981 -5.303836 4.832086 -6.380403 1.695805 -1.939909 -1.528951 -0.0 0.0 2e-06 -4.377047 7.159183 4.432694 -0.02601 0.12449 10.818599 6.489571 4.63695 -7.113377 -1.426836 1.049085 -1.935951 0.0 0.0 -1e-06 
0.0 0.0 0.0 0.0 -0.0 0.0 0.059007 99.42971 0.49661 0.766868 0.276335 -8.598991 0.563113 -0.036784 1.809436 -0.447729 0.311933 -4.461812 -1.614377 -1.611449 12.773302 0.58037 2.417833 6.753349 -0.854248 -0.452648 -3.544901 -0.36219 -1.185784 -6.097179 7.7e-05 -2.2e-05 6e-06 0.019797 0.030954 0.003323 0.758164 -3.686262 -10.532845 -0.721807 3.759082 -10.518494 -9.344438 -4.32025 16.067549 -58.0914 -13.884897 37.027042 -0.298745 -27.767797 0.103428 7.160336 8.610218 -16.154755 -5.882106 9.861288 0.702591 -10.936872 -0.360574 7.156206 -1e-06 8.774828 -2e-06 -16.018494 17.653667 6.106358 -1.844031 2.498506 -2.507279 -10.163599 4.678946 4.62111 -20.976023 -2e-06 0.0 -21.226288 2.4517 -3.593999 -0.0 -7e-06 1e-06 -1.362682 2.240799 -0.746323 -21.334913 0.584911 3.008324 -13.821215 -2e-06 2e-06 -23.887171 -0.249077 -0.839484 -60.406738 2.371079 -1.153418 -0.294026 1.679688 0.833256 -14.218209 0.093217 1.30058 -34.212048 -0.28756 0.967169 -20.033211 0.96454 1.21284 0.0 2e-06 1e-06 -3.440388 0.788234 0.501654 -15.928185 -3.16731 2.999708 -6.338826 -0.0 2e-06 -18.123449 3.648184 -4.905671 -4e-06 -0.0 -3e-06 15.177893 8.78091 17.670378 59.448711 12.717467 11.220251 0.65788 26.808075 0.256225 2.315227 -4.13938 -1.524596 2.243541 -5.255036 -3.180156 14.282896 -0.826594 6.952503 -3e-06 -12.690604 -1e-06 15.964367 -17.46405 2.66151 1.665667 -1.955923 -2.878298 4.7278 -4.170588 4.993925 11.020531 3e-06 0.0 12.109056 -3.735715 -2.866784 -1e-06 0.0 -0.0 1.291986 -1.92855 -1.498088 14.800132 0.567468 3.865608 14.242577 -1.341736 -6.660657 19.631973 0.143925 -0.648242 49.738907 -0.508691 -6.34891 0.353028 -1.51115 -0.031939 20.222797 3.68431 2.316633 18.787279 6e-06 2e-06 10.751632 -0.479868 1.397908 -1e-06 1e-06 -1e-06 3.273808 0.305947 -0.580112 21.48682 11.830376 2.266135 8.16293 -0.0 -1e-06 18.399088 -3.798987 -4.940576 4e-06 -1e-06 -2e-06 4.440931 8.740259 9.066066 -0.053656 -0.065294 6.132472 -5.360129 4.78871 -6.330942 1.697344 -1.980971 -1.555518 0.0 -0.0 2e-06 -4.324824 7.216732 4.68365 -0.035421 0.156619 10.736802 6.476219 4.596464 -7.125708 -1.430613 1.044182 -1.916063 -0.0 0.0 -1e-06 
0.0 0.0 0.0 0.0 -0.0 0.0 0.048772 99.407669 0.543962 0.798992 0.221994 -8.756268 0.581456 -0.041795 1.729435 -0.437592 0.26611 -4.500083 -1.605243 -1.586342 13.051626 0.432255 2.49057 6.864902 -0.811335 -0.485143 -3.528136 -0.393862 -1.188749 -5.948901 7.7e-05 -2.3e-05 6e-06 0.021615 0.068095 0.007377 0.750249 -3.6498 -10.523097 -0.710421 3.796081 -10.506617 -9.676319 -4.367614 16.216944 -59.00412 -14.467895 37.695503 -0.295886 -27.115755 0.085283 6.990197 8.680295 -16.72827 -5.882107 9.861287 0.702592 -10.936873 -0.360574 7.156211 1e-06 8.774828 2e-06 -16.076778 17.684092 6.058496 -1.844033 2.498505 -2.507277 -10.163603 4.678945 4.621109 -20.976027 -2e-06 2e-06 -21.226288 2.451698 -3.594 -1e-06 -8e-06 0.0 -1.362682 2.240798 -0.746324 -21.334917 0.58491 3.008325 -13.821216 -2e-06 4e-06 -23.887175 -0.249079 -0.839485 -60.341278 2.383043 -1.20234 -0.294025 1.679687 0.833253 -14.218212 0.093215 1.300582 -34.212063 -0.287563 0.967171 -20.033215 0.964538 1.212845 -0.0 2e-06 2e-06 -3.44039 0.788234 0.501655 -15.928189 -3.16731 2.999706 -6.338827 -1e-06 2e-06 -18.123447 3.648182 -4.90567 -3e-06 -1e-06 -2e-06 15.564415 8.676317 18.030142 60.079163 13.317209 12.392085 0.596971 26.619043 0.255607 2.033695 -3.593324 -2.201109 2.243541 -5.255036 -3.180155 14.282887 -0.826595 6.952502 -2e-06 -12.690602 1e-06 15.964924 -17.486084 2.651625 1.665666 -1.95592 -2.878298 4.727798 -4.170587 4.993925 11.020526 3e-06 0.0 12.109052 -3.735715 -2.866783 -1e-06 -0.0 0.0 1.291985 -1.928548 -1.498088 14.800127 0.567468 3.865606 14.242571 -1.341736 -6.660656 19.631968 0.143924 -0.648244 49.812904 -0.527374 -6.371137 0.353029 -1.511151 -0.03194 20.222788 3.684309 2.316629 18.78727 4e-06 1e-06 10.751626 -0.479868 1.397907 -1e-06 0.0 -1e-06 3.273806 0.305948 -0.58011 21.486813 11.830373 2.266135 8.162928 2e-06 0.0 18.39908 -3.798985 -4.940576 3e-06 1e-06 -1e-06 4.454162 8.797466 9.313069 -0.05115 -0.097717 6.068325 -5.358023 4.715857 -6.352598 1.700365 -1.998813 -1.554748 -0.0 -0.0 2e-06 -4.29609 7.214507 4.735403 -0.031918 0.166488 10.888633 6.472259 4.640844 -7.214875 -1.429333 1.055577 -1.833801 0.0 0.0 -1e-06 
0.0 0.0 0.0 0.0 -0.0 0.0 0.041026 99.386826 0.563588 0.838595 0.142133 -8.855199 0.585941 -0.029273 1.650435 -0.44556 0.194465 -4.537101 -1.57418 -1.524882 13.320784 0.308965 2.519106 6.870324 -0.781473 -0.473466 -3.527189 -0.377474 -1.195971 -5.83701 7.7e-05 -2.3e-05 6e-06 0.023638 0.09257 0.014533 0.745151 -3.624434 -10.517165 -0.701369 3.818517 -10.49909 -9.922338 -4.454854 16.345129 -59.927029 -15.035907 38.526459 -0.251623 -26.61034 0.072612 6.769057 8.719942 -17.48963 -5.882114 9.861294 0.702591 -10.936884 -0.360573 7.156214 -0.0 8.774833 1e-06 -16.120794 17.68294 5.99568 -1.844035 2.498507 -2.507282 -10.163612 4.678951 4.621116 -20.976053 -1e-06 -1e-06 -21.226316 2.451701 -3.594005 1e-06 -6e-06 -1e-06 -1.362684 2.2408 -0.746326 -21.334938 0.584913 3.008323 -13.82123 -1e-06 -2e-06 -23.887201 -0.249078 -0.839488 -60.265171 2.351938 -1.255387 -0.294024 1.679688 0.833256 -14.218225 0.093218 1.30058 -34.212086 -0.287559 0.967166 -20.033239 0.964538 1.212841 -0.0 2e-06 -1e-06 -3.440392 0.788234 0.501657 -15.928205 -3.167309 2.999709 -6.338835 0.0 2e-06 -18.12347 3.648188 -4.905677 -4e-06 -0.0 -2e-06 15.927796 8.638898 18.276215 60.756916 13.891209 14.137078 0.526158 26.36923 0.251184 2.078841 -3.149185 -2.642476 2.243544 -5.255041 -3.180161 14.282899 -0.8266 6.952507 1e-06 -12.690618 -1e-06 15.937516 -17.501745 2.642164 1.665667 -1.955923 -2.878301 4.727803 -4.170592 4.993927 11.020535 0.0 -1e-06 12.10906 -3.735723 -2.866787 -1e-06 0.0 1e-06 1.291987 -1.928552 -1.49809 14.800139 0.567464 3.865612 14.242584 -1.341741 -6.660664 19.631977 0.143921 -0.648246 49.796761 -0.563707 -6.389619 0.353029 -1.511152 -0.031941 20.222803 3.684308 2.316631 18.787287 0.0 -1e-06 10.751635 -0.479871 1.397907 -1e-06 1e-06 -0.0 3.273809 0.305947 -0.580111 21.486818 11.83038 2.266135 8.162931 -1e-06 -2e-06 18.399096 -3.798993 -4.940583 4e-06 0.0 -2e-06 4.461684 8.906247 9.438189 -0.048104 -0.105914 6.096306 -5.334803 4.610435 -6.389269 1.699178 -1.993101 -1.523657 0.0 -0.0 2e-06 -4.3586 7.193233 4.735804 -0.023335 0.156212 11.111084 6.5699 4.771924 -7.306994 -1.427598 1.061415 -1.741441 0.0 0.0 -1e-06 
0.0 0.0 0.0 0.0 -0.0 0.0 0.03347 99.366074 0.548383 0.861915 0.066293 -8.871526 0.602138 0.005927 1.581937 -0.460062 0.127956 -4.565023 -1.545757 -1.473061 13.533715 0.206645 2.528623 6.741142 -0.756412 -0.45213 -3.535073 -0.334273 -1.210167 -5.822241 7.7e-05 -2.3e-05 6e-06 0.024244 0.103554 0.022832 0.743996 -3.612081 -10.507596 -0.698997 3.826957 -10.491068 -10.121519 -4.55155 16.418344 -60.70026 -15.600217 39.486217 -0.211777 -26.158421 0.072399 6.564441 8.760156 -18.163237 -5.882108 9.861284 0.702592 -10.936876 -0.360575 7.156208 1e-06 8.774826 -1e-06 -16.125452 17.647369 5.958169 -1.844034 2.498505 -2.507278 -10.163604 4.678945 4.621108 -20.97603 -6e-06 1e-06 -21.226294 2.451693 -3.594001 -1e-06 -5e-06 -1e-06 -1.362682 2.240799 -0.746323 -21.334921 0.584908 3.008323 -13.821218 -4e-06 0.0 -23.887178 -0.249084 -0.839485 -60.215481 2.326726 -1.283974 -0.294025 1.679688 0.833256 -14.218215 0.093214 1.30058 -34.212063 -0.287566 0.96717 -20.033222 0.964536 1.212842 -1e-06 1e-06 -0.0 -3.440389 0.788233 0.501654 -15.928192 -3.167311 2.999709 -6.338829 -1e-06 1e-06 -18.123453 3.648182 -4.90567 -3e-06 -0.0 -1e-06 16.235563 8.665985 18.454536 61.437069 14.475876 16.191956 0.462375 26.044498 0.252665 2.410688 -2.908753 -2.577649 2.24354 -5.255034 -3.180158 14.282887 -0.826593 6.952505 -5e-06 -12.690601 2e-06 15.909589 -17.529968 2.628324 1.665665 -1.95592 -2.8783 4.727798 -4.170586 4.993925 11.020526 4e-06 -1e-06 12.109052 -3.735713 -2.866785 0.0 -0.0 -1e-06 1.291986 -1.928549 -1.49809 14.800125 0.56747 3.865608 14.242569 -1.341734 -6.660656 19.631968 0.143928 -0.648244 49.746304 -0.593806 -6.418589 0.353028 -1.511151 -0.03194 20.222788 3.684311 2.316631 18.78727 7e-06 3e-06 10.751625 -0.47987 1.397907 -1e-06 0.0 2e-06 3.273806 0.305947 -0.58011 21.486811 11.830373 2.266132 8.162926 1e-06 2e-06 18.399076 -3.798984 -4.940572 6e-06 -1e-06 -0.0 4.469656 9.003956 9.326826 -0.040341 -0.093138 6.371317 -5.303784 4.478973 -6.50494 1.691051 -1.983492 -1.48331 0.0 -0.0 2e-06 -4.413407 7.135779 4.594985 -0.019012 0.146958 11.391253 6.675794 4.922747 -7.39858 -1.426586 1.063981 -1.643207 0.0 0.0 -1e-06 
